<svg xmlns="http://www.w3.org/2000/svg" width="32" height="32" viewBox="0 0 32 32" fill="none">
  <circle cx="16" cy="16" r="16" fill="#28A0F0"/>
  <path d="M11.6249 7.28539L16.0183 15.5115L20.4379 7.35233C20.5142 7.21734 20.6908 7.18201 20.8137 7.27788L22.2912 8.47653C22.352 8.52512 22.3912 8.59778 22.399 8.67801C22.4068 8.75823 22.3826 8.83788 22.3323 8.89888L16.7815 15.6598V15.6611L20.1533 21.6095C20.2054 21.6992 20.2023 21.8106 20.1455 21.8972L18.6558 24.0923C18.5319 24.2745 18.2558 24.1944 18.2371 23.976L16.3899 15.6611L10.9249 8.91764C10.8773 8.8566 10.8553 8.77767 10.8645 8.69849C10.8736 8.61931 10.9132 8.54858 10.9736 8.5015L11.2601 8.27825C11.3835 8.18239 11.5601 8.21773 11.6364 8.35271L16.0183 15.5115L17.7214 22.7941L18.5884 20.6234L16.0183 15.5115L11.6364 8.35271C11.5601 8.21773 11.3835 8.18239 11.2601 8.27826L10.9736 8.5015C10.9132 8.54858 10.8736 8.61931 10.8645 8.69849C10.8553 8.77767 10.8773 8.8566 10.9249 8.91764L16.3899 15.6611L18.2371 23.976C18.2558 24.1944 18.5319 24.2745 18.6558 24.0923L20.1455 21.8972C20.2023 21.8106 20.2054 21.6992 20.1533 21.6095L16.7815 15.6611V15.6598L22.3323 8.89888C22.3826 8.83788 22.4068 8.75823 22.399 8.67801C22.3912 8.59778 22.352 8.52512 22.2912 8.47653L20.8137 7.27788C20.6908 7.18201 20.5142 7.21734 20.4379 7.35233L16.0183 15.5115L11.6249 7.28539Z" fill="white"/>
</svg> 