<svg xmlns="http://www.w3.org/2000/svg" width="24" height="24" viewBox="0 0 24 24" fill="none">
  <circle cx="12" cy="12" r="12" fill="#06B6D4" fill-opacity="0.15"/>
  <path d="M16 7H8C7.44772 7 7 7.44772 7 8V16C7 16.5523 7.44772 17 8 17H16C16.5523 17 17 16.5523 17 16V8C17 7.44772 16.5523 7 16 7Z" stroke="#06B6D4" stroke-width="2" stroke-linecap="round" stroke-linejoin="round"/>
  <path d="M13 11.5C13 10.6716 12.3284 10 11.5 10C10.6716 10 10 10.6716 10 11.5C10 12.3284 10.6716 13 11.5 13" stroke="#06B6D4" stroke-width="2" stroke-linecap="round" stroke-linejoin="round"/>
  <path d="M11.5 13C12.3284 13 13 13.6716 13 14.5C13 15.3284 12.3284 16 11.5 16C10.6716 16 10 15.3284 10 14.5" stroke="#06B6D4" stroke-width="2" stroke-linecap="round" stroke-linejoin="round"/>
  <path d="M14 10V16" stroke="#06B6D4" stroke-width="2" stroke-linecap="round" stroke-linejoin="round"/>
</svg> 