<svg xmlns="http://www.w3.org/2000/svg" width="32" height="32" viewBox="0 0 32 32" fill="none">
  <circle cx="16" cy="16" r="16" fill="#FF0420"/>
  <path d="M9.99998 12.5C9.99998 10.567 11.567 9 13.5 9H16C19.038 9 21.5 11.462 21.5 14.5C21.5 17.538 19.038 20 16 20H13.5C11.567 20 9.99998 18.433 9.99998 16.5V12.5ZM13.5 17.75C14.7426 17.75 15.75 16.7426 15.75 15.5C15.75 14.2574 14.7426 13.25 13.5 13.25C12.2574 13.25 11.25 14.2574 11.25 15.5C11.25 16.7426 12.2574 17.75 13.5 17.75Z" fill="white"/>
  <path d="M22 23L22 9.00002" stroke="white" stroke-width="2.5" stroke-linecap="round"/>
</svg> 