<?xml version="1.0" encoding="UTF-8"?>
<svg width="48" height="48" viewBox="0 0 48 48" fill="none" xmlns="http://www.w3.org/2000/svg">
  <path d="M24 44C35.0457 44 44 35.0457 44 24C44 12.9543 35.0457 4 24 4C12.9543 4 4 12.9543 4 24C4 35.0457 12.9543 44 24 44Z" fill="url(#paint0_linear)"/>
  <path d="M24 40C32.8366 40 40 32.8366 40 24C40 15.1634 32.8366 8 24 8C15.1634 8 8 15.1634 8 24C8 32.8366 15.1634 40 24 40Z" fill="url(#paint1_linear)"/>
  <path d="M24 36C30.6274 36 36 30.6274 36 24C36 17.3726 30.6274 12 24 12C17.3726 12 12 17.3726 12 24C12 30.6274 17.3726 36 24 36Z" fill="url(#paint2_linear)"/>
  <defs>
    <linearGradient id="paint0_linear" x1="24" y1="4" x2="24" y2="44" gradientUnits="userSpaceOnUse">
      <stop stop-color="#FF0000"/>
      <stop offset="0.25" stop-color="#FF8A00"/>
      <stop offset="0.5" stop-color="#FFE600"/>
      <stop offset="0.75" stop-color="#14F195"/>
      <stop offset="1" stop-color="#00B2FF"/>
    </linearGradient>
    <linearGradient id="paint1_linear" x1="24" y1="8" x2="24" y2="40" gradientUnits="userSpaceOnUse">
      <stop stop-color="#FF0000"/>
      <stop offset="0.25" stop-color="#FF8A00"/>
      <stop offset="0.5" stop-color="#FFE600"/>
      <stop offset="0.75" stop-color="#14F195"/>
      <stop offset="1" stop-color="#00B2FF"/>
    </linearGradient>
    <linearGradient id="paint2_linear" x1="24" y1="12" x2="24" y2="36" gradientUnits="userSpaceOnUse">
      <stop stop-color="#FF0000"/>
      <stop offset="0.25" stop-color="#FF8A00"/>
      <stop offset="0.5" stop-color="#FFE600"/>
      <stop offset="0.75" stop-color="#14F195"/>
      <stop offset="1" stop-color="#00B2FF"/>
    </linearGradient>
  </defs>
</svg> 