<?xml version="1.0" encoding="UTF-8"?>
<svg width="48" height="48" viewBox="0 0 48 48" fill="none" xmlns="http://www.w3.org/2000/svg">
  <path d="M42.1 4L26.9 16.4L29.8 9.2L42.1 4Z" fill="#E17726"/>
  <path d="M5.90002 4L20.9 16.5L18.2 9.2L5.90002 4Z" fill="#E27625"/>
  <path d="M36.5 32.7L32.4 39.3L41.1 41.8L43.6 32.8L36.5 32.7Z" fill="#E27625"/>
  <path d="M4.40002 32.8L6.90002 41.8L15.6 39.3L11.5 32.7L4.40002 32.8Z" fill="#E27625"/>
  <path d="M15.2 21.2L12.8 25L21.4 25.4L21.1 16.1L15.2 21.2Z" fill="#E27625"/>
  <path d="M32.8 21.2L26.8 16L26.6 25.4L35.2 25L32.8 21.2Z" fill="#E27625"/>
  <path d="M15.6 39.3L20.9 36.7L16.4 32.9L15.6 39.3Z" fill="#E27625"/>
  <path d="M27.1 36.7L32.4 39.3L31.6 32.9L27.1 36.7Z" fill="#E27625"/>
  <path d="M32.4 39.3L27.1 36.7L27.5 40.3L27.4 41.7L32.4 39.3Z" fill="#D5BFB2"/>
  <path d="M15.6 39.3L20.6 41.7L20.5 40.3L20.9 36.7L15.6 39.3Z" fill="#D5BFB2"/>
  <path d="M20.7 30.5L16.4 29.2L19.4 27.7L20.7 30.5Z" fill="#233447"/>
  <path d="M27.3 30.5L28.6 27.7L31.6 29.2L27.3 30.5Z" fill="#233447"/>
  <path d="M15.6 39.3L16.4 32.7L11.5 32.8L15.6 39.3Z" fill="#CC6228"/>
  <path d="M31.6 32.7L32.4 39.3L36.5 32.8L31.6 32.7Z" fill="#CC6228"/>
  <path d="M35.2 25L26.6 25.4L27.3 30.5L28.6 27.7L31.6 29.2L35.2 25Z" fill="#CC6228"/>
  <path d="M16.4 29.2L19.4 27.7L20.7 30.5L21.4 25.4L12.8 25L16.4 29.2Z" fill="#CC6228"/>
  <path d="M12.8 25L16.4 32.9L16.4 29.2L12.8 25Z" fill="#E27525"/>
  <path d="M31.6 29.2L31.6 32.9L35.2 25L31.6 29.2Z" fill="#E27525"/>
  <path d="M21.4 25.4L20.7 30.5L21.6 36L21.8 28.5L21.4 25.4Z" fill="#E27525"/>
  <path d="M26.6 25.4L26.2 28.5L26.4 36L27.3 30.5L26.6 25.4Z" fill="#E27525"/>
  <path d="M27.3 30.5L26.4 36L27.1 36.7L31.6 32.9L31.6 29.2L27.3 30.5Z" fill="#F5841F"/>
  <path d="M16.4 29.2L16.4 32.9L20.9 36.7L21.6 36L20.7 30.5L16.4 29.2Z" fill="#F5841F"/>
  <path d="M27.4 41.7L27.5 40.3L27.1 40L20.9 40L20.5 40.3L20.6 41.7L15.6 39.3L17.3 40.7L20.8 43.1H27.2L30.7 40.7L32.4 39.3L27.4 41.7Z" fill="#C0AC9D"/>
  <path d="M27.1 36.7L26.4 36H21.6L20.9 36.7L20.5 40.3L20.9 40H27.1L27.5 40.3L27.1 36.7Z" fill="#161616"/>
  <path d="M43.6 17.2L45 10.6L42.1 4L27.1 15.8L32.8 21.2L40.8 23.6L42.5 21.5L41.8 21L43 19.9L42.1 19.2L43.3 18.3L43.6 17.2Z" fill="#763E1A"/>
  <path d="M3 10.6L4.40002 17.2L4.70002 18.3L5.90002 19.2L5.00002 19.9L6.20002 21L5.50002 21.5L7.20002 23.6L15.2 21.2L20.9 15.8L5.90002 4L3 10.6Z" fill="#763E1A"/>
  <path d="M40.8 23.6L32.8 21.2L35.2 25L31.6 32.9L36.5 32.8H43.6L40.8 23.6Z" fill="#F5841F"/>
  <path d="M15.2 21.2L7.20002 23.6L4.40002 32.8H11.5L16.4 32.9L12.8 25L15.2 21.2Z" fill="#F5841F"/>
  <path d="M26.6 25.4L27.1 15.8L29.8 9.2H18.2L20.9 15.8L21.4 25.4L21.6 28.5V36H26.4V28.5L26.6 25.4Z" fill="#F5841F"/>
</svg> 