<svg xmlns="http://www.w3.org/2000/svg" width="32" height="32" viewBox="0 0 32 32" fill="none">
  <circle cx="16" cy="16" r="16" fill="#8247E5"/>
  <path d="M21.0772 13.0345C20.6936 12.8014 20.2029 12.8014 19.7851 13.0345L16.9078 14.7082L14.8658 15.8695L12.0226 17.5431C11.639 17.7763 11.1483 17.7763 10.7305 17.5431L8.51232 16.2819C8.12865 16.0488 7.87013 15.6494 7.87013 15.1831V12.7276C7.87013 12.2613 8.09445 11.8618 8.51232 11.6286L10.6963 10.4007C11.0799 10.1675 11.5707 10.1675 11.9885 10.4007L14.1725 11.6286C14.5562 11.8618 14.8147 12.2613 14.8147 12.7276V14.4012L16.8567 13.2066V11.533C16.8567 11.0667 16.6324 10.6673 16.2145 10.4341L11.9885 7.97871C11.6049 7.74555 11.1141 7.74555 10.6963 7.97871L6.40617 10.4341C5.98829 10.6673 5.76398 11.0667 5.76398 11.533V16.3777C5.76398 16.844 5.9883 17.2434 6.40617 17.4766L10.6963 19.932C11.0799 20.1652 11.5707 20.1652 11.9885 19.932L14.8317 18.2917L16.8737 17.0971L19.7169 15.4569C20.1006 15.2237 20.5913 15.2237 21.0091 15.4569L23.1931 16.6848C23.5768 16.918 23.8353 17.3174 23.8353 17.7837V20.2392C23.8353 20.7055 23.611 21.105 23.1931 21.3381L21.0091 22.5661C20.6255 22.7992 20.1347 22.7992 19.7169 22.5661L17.5329 21.3381C17.1493 21.105 16.8908 20.7055 16.8908 20.2392V18.5656L14.8488 19.7602V21.4339C14.8488 21.9002 15.0731 22.2996 15.491 22.5328L19.7811 24.9882C20.1648 25.2213 20.6555 25.2213 21.0733 24.9882L25.3635 22.5328C25.7471 22.2996 26.0057 21.9002 26.0057 21.4339V16.5891C26.0057 16.1228 25.7813 15.7234 25.3635 15.4902L21.0772 13.0345Z" fill="white"/>
</svg> 