<?xml version="1.0" encoding="UTF-8"?>
<svg width="48" height="48" viewBox="0 0 48 48" fill="none" xmlns="http://www.w3.org/2000/svg">
  <path d="M12.2 17.8C19.4 10.6 31 10.6 38.2 17.8L39 18.6C39.4 19 39.4 19.6 39 20L36.2 22.8C36 23 35.6 23 35.4 22.8L34.4 21.8C29.2 16.6 21.2 16.6 16 21.8L14.8 23C14.6 23.2 14.2 23.2 14 23L11.2 20.2C10.8 19.8 10.8 19.2 11.2 18.8L12.2 17.8Z" fill="#3B99FC"/>
  <path d="M43.4 23L46.2 25.8C46.6 26.2 46.6 26.8 46.2 27.2L35.4 38C35 38.4 34.4 38.4 34 38L26.2 30.2C26.1 30.1 25.9 30.1 25.8 30.2L18 38C17.6 38.4 17 38.4 16.6 38L5.8 27.2C5.4 26.8 5.4 26.2 5.8 25.8L8.6 23C9 22.6 9.6 22.6 10 23L17.8 30.8C17.9 30.9 18.1 30.9 18.2 30.8L26 23C26.4 22.6 27 22.6 27.4 23L35.2 30.8C35.3 30.9 35.5 30.9 35.6 30.8L43.4 23C43.8 22.6 44.4 22.6 43.4 23Z" fill="#3B99FC"/>
</svg> 